<svg width="500" height="500" viewBox="0 0 500 500" fill="none" xmlns="http://www.w3.org/2000/svg">
<path d="M215.479 82.0833C217.354 70.7917 227.146 62.5 238.604 62.5H261.375C272.833 62.5 282.625 70.7917 284.5 82.0833L287.604 100.708C289.063 109.542 295.604 116.625 303.854 120.083C312.146 123.5 321.667 123.042 328.958 117.833L344.313 106.854C348.828 103.626 354.343 102.106 359.875 102.563C365.407 103.021 370.597 105.428 374.521 109.354L390.625 125.479C398.75 133.583 399.792 146.354 393.125 155.688L382.146 171.042C376.938 178.333 376.479 187.833 379.917 196.125C383.354 204.396 390.438 210.917 399.292 212.375L417.896 215.5C429.208 217.375 437.479 227.146 437.479 238.604V261.396C437.479 272.854 429.208 282.646 417.896 284.521L399.271 287.625C390.438 289.083 383.354 295.604 379.917 303.875C376.479 312.167 376.938 321.667 382.146 328.958L393.125 344.333C399.792 353.646 398.729 366.417 390.625 374.542L374.5 390.646C370.578 394.567 365.392 396.97 359.864 397.428C354.337 397.885 348.827 396.368 344.313 393.146L328.938 382.167C321.646 376.958 312.146 376.5 303.875 379.937C295.583 383.375 289.083 390.458 287.604 399.292L284.5 417.917C282.625 429.208 272.833 437.5 261.375 437.5H238.583C227.125 437.5 217.354 429.208 215.458 417.917L212.375 399.292C210.896 390.458 204.375 383.375 196.104 379.917C187.813 376.5 178.313 376.958 171.021 382.167L155.646 393.146C146.333 399.813 133.563 398.75 125.438 390.646L109.333 374.521C105.407 370.597 103.001 365.407 102.543 359.875C102.085 354.343 103.605 348.828 106.833 344.313L117.813 328.958C123.021 321.667 123.479 312.167 120.063 303.875C116.625 295.604 109.521 289.083 100.688 287.625L82.0626 284.5C70.7709 282.625 62.4792 272.833 62.4792 261.396V238.604C62.4792 227.146 70.7709 217.354 82.0626 215.479L100.688 212.375C109.521 210.917 116.625 204.396 120.063 196.125C123.5 187.833 123.042 178.333 117.813 171.042L106.854 155.667C103.626 151.151 102.106 145.636 102.564 140.104C103.021 134.572 105.428 129.382 109.354 125.458L125.458 109.354C129.382 105.428 134.572 103.021 140.104 102.563C145.636 102.106 151.151 103.626 155.667 106.854L171.021 117.833C178.313 123.042 187.833 123.5 196.104 120.063C204.375 116.625 210.896 109.542 212.354 100.708L215.479 82.0833Z" stroke="#9CB7B2" stroke-width="1.5" stroke-linecap="round" stroke-linejoin="round"/>
<path d="M312.5 250C312.5 266.576 305.915 282.473 294.194 294.194C282.473 305.915 266.576 312.5 250 312.5C233.424 312.5 217.527 305.915 205.806 294.194C194.085 282.473 187.5 266.576 187.5 250C187.5 233.424 194.085 217.527 205.806 205.806C217.527 194.085 233.424 187.5 250 187.5C266.576 187.5 282.473 194.085 294.194 205.806C305.915 217.527 312.5 233.424 312.5 250Z" stroke="#9CB7B2" stroke-width="1.5" stroke-linecap="round" stroke-linejoin="round"/>
</svg>
