<svg width="314" height="439" viewBox="0 0 314 439" fill="none" xmlns="http://www.w3.org/2000/svg">
<path d="M157.01 344.464V235.089M157.01 235.089C167.551 235.097 178.051 233.774 188.26 231.152M157.01 235.089C146.47 235.097 135.97 233.774 125.76 231.152M203.885 386.943C172.912 392.825 141.109 392.825 110.135 386.943M188.26 436.589C167.484 438.764 146.537 438.764 125.76 436.589M203.885 344.464V340.464C203.885 319.985 217.594 302.485 235.302 292.214C265.052 274.986 288.29 248.427 301.415 216.653C314.54 184.878 316.819 149.662 307.899 116.461C298.98 83.2595 279.36 53.9268 252.078 33.0074C224.797 12.0881 191.379 0.75 157 0.75C122.622 0.75 89.2028 12.0881 61.9217 33.0074C34.6405 53.9268 15.0202 83.2595 6.10065 116.461C-2.81889 149.662 -0.53964 184.878 12.5852 216.653C25.7101 248.427 48.9479 274.986 78.698 292.214C96.4063 302.485 110.135 319.985 110.135 340.464V344.464" stroke="white" stroke-width="1.5" stroke-linecap="round" stroke-linejoin="round"/>
</svg>
