<svg width="216" height="26" viewBox="0 0 216 26" fill="none" xmlns="http://www.w3.org/2000/svg">
<g clip-path="url(#clip0_1_19)">
<path d="M106.975 0.480736V26H122.723V23.2491H110.423V0.480736H106.975Z" fill="white"/>
<path d="M141.66 0.480736L131.75 26H135.28L137.71 19.3231L138.755 16.5722L143.154 4.63379L147.566 16.5722L148.584 19.3231L151.068 26H154.571L144.647 0.480736H141.66Z" fill="white"/>
<path d="M181.179 0.480736V20.2311L168.078 0.480736H164.644V26H168.078V6.32973L181.138 26H184.586V0.480736H181.179Z" fill="white"/>
<path d="M212.606 13.9281C212.772 16.4144 211.988 18.8721 210.407 20.8187C209.625 21.6421 208.669 22.2865 207.607 22.7065C206.544 23.1265 205.401 23.3117 204.257 23.2491H200.646V3.24501H204.651C205.755 3.19377 206.857 3.38807 207.875 3.81347C208.893 4.23886 209.8 4.8844 210.529 5.70211C212.022 7.63687 212.759 10.0348 212.606 12.4592V13.9281ZM216 14.0082V12.3791C216.032 10.213 215.539 8.07062 214.561 6.12945C213.658 4.36748 212.24 2.91172 210.488 1.94968C208.663 0.939185 206.596 0.427424 204.502 0.467417H197.171V26H204.352C206.489 26.0239 208.597 25.509 210.475 24.5044C212.232 23.5559 213.653 22.1023 214.547 20.338C215.532 18.3713 216.021 16.2001 215.973 14.0082" fill="white"/>
<path d="M28.4 26.0133H31.821V0.480736H28.4V26.0133ZM63.1261 0.480736L55.7003 21.5398L48.3288 0.480736H44.5548L54.1935 26.0133H57.2208L66.8458 0.480736H63.1261ZM82.2405 0.480736L72.3303 26.0133H75.86L78.3036 19.3364L79.3353 16.5855L83.7338 4.63381L88.1322 16.5989L89.1368 19.3498L91.6212 26.0267H95.1372L85.1999 0.494103L82.2405 0.480736Z" fill="#7DCAD8"/>
<path d="M17.1323 25.7864L10.9283 14.756C12.4042 14.2444 13.6935 13.3153 14.6344 12.0853C15.5438 10.8574 16.0204 9.37098 15.992 7.85211C16.0654 6.76481 15.8859 5.67532 15.4672 4.66646C15.0485 3.65761 14.4015 2.75589 13.5755 2.0298C11.6025 0.576384 9.16577 -0.134184 6.7063 0.026716H0.0135651L1.50688 2.83104H6.80132C8.32768 2.75054 9.8307 3.22593 11.0233 4.16643C11.5272 4.64044 11.9196 5.21719 12.1729 5.8562C12.4262 6.49521 12.5342 7.18099 12.4895 7.86544C12.5176 8.53237 12.3945 9.1971 12.1292 9.81146C11.8639 10.4258 11.4629 10.9745 10.9554 11.4176C9.80802 12.3349 8.36021 12.8096 6.88277 12.753L13.9963 26.1068H17.2545L17.1323 25.7864Z" fill="#7DCAD8"/>
</g>
<defs>
<clipPath id="clip0_1_19">
<rect width="216" height="26" fill="white"/>
</clipPath>
</defs>
</svg>
